<svg xmlns="http://www.w3.org/2000/svg" width="1200" height="630" viewBox="0 0 1200 630">
  <defs>
    <radialGradient id="bg" cx="50%" cy="38%" r="78%">
      <stop offset="0%" stop-color="#12203a"/>
      <stop offset="100%" stop-color="#0a1526"/>
    </radialGradient>
    <filter id="soft" x="-20%" y="-20%" width="140%" height="140%">
      <feDropShadow dx="0" dy="4" stdDeviation="8" flood-color="#000000" flood-opacity="0.35"/>
    </filter>
  </defs>

  <rect width="1200" height="630" fill="url(#bg)"/>

  <!-- sail-dart emblem -->
  <g transform="translate(415.0,49.2) scale(3.7)" filter="url(#soft)">
  <path d="M 55.38 11.47 L 49.39 45.45 Q 40.39 50.46 31.12 56.95 Q 42.87 30.59 55.38 11.47 Z" fill="#eef4f7"/>
  <path d="M 55.38 11.47 Q 64.22 33.34 63.12 62.59 Q 56.14 53.24 49.39 45.45 Z" fill="#a9c6dc"/>
  <path d="M 13 70 Q 25 62.5 37 67 Q 51 72.5 62 68 Q 74 63.5 87 66.5" fill="none" stroke="#85c1e9" stroke-width="4.5" stroke-linecap="round"/>
  <path d="M 17 77 Q 25 73 33 75" fill="none" stroke="#85c1e9" stroke-width="3" stroke-linecap="round" opacity="0.55"/>
  </g>

  <!-- wordmark: Pelorus Nav (Outfit 600, as paths) -->
  <g transform="translate(342.1,528)">
    <path d="M16.464 -25.008V-35.664H32.160000000000004Q35.27153757225434 -35.664 37.73597687861272 -36.92181818181818Q40.200416184971104 -38.17963636363636 41.64020809248555 -40.5528Q43.08 -42.92596363636363 43.08 -46.248Q43.08 -49.57003636363637 41.64020809248555 -51.943200000000004Q40.200416184971104 -54.31636363636363 37.73597687861272 -55.57418181818181Q35.27153757225434 -56.832 32.160000000000004 -56.832H16.464V-67.488H33.528Q39.936 -67.488 45.048 -64.884Q50.160000000000004 -62.28 53.136 -57.5300487804878Q56.112 -52.780097560975605 56.112 -46.2620487804878Q56.112 -39.768 53.136 -34.992000000000004Q50.160000000000004 -30.216 45.048 -27.612000000000002Q39.936 -25.008 33.528 -25.008ZM6.888 0.0V-67.488H19.968V0.0Z M84.744 1.008Q77.49600000000001 1.008 71.796 -2.112Q66.096 -5.232 62.80800000000001 -10.74Q59.52 -16.248 59.52 -23.184Q59.52 -30.096 62.748000000000005 -35.556Q65.976 -41.016 71.532 -44.196Q77.088 -47.376 83.928 -47.376Q90.6 -47.376 95.72399999999999 -44.388Q100.848 -41.4 103.77600000000001 -36.168Q106.70400000000001 -30.936 106.70400000000001 -24.240000000000002Q106.70400000000001 -23.016000000000002 106.56 -21.72Q106.416 -20.424 106.08000000000001 -18.816L67.056 -18.744V-28.104L100.224 -28.176000000000002L95.088 -24.312Q94.944 -28.44 93.636 -31.212000000000003Q92.328 -33.984 89.892 -35.448Q87.456 -36.912 83.88 -36.912Q80.136 -36.912 77.376 -35.256Q74.616 -33.6 73.116 -30.588Q71.616 -27.576 71.616 -23.376Q71.616 -19.152 73.21199999999999 -16.044Q74.80799999999999 -12.936 77.75999999999999 -11.268Q80.712 -9.6 84.672 -9.6Q88.176 -9.6 91.08000000000001 -10.812000000000001Q93.98400000000001 -12.024000000000001 96.096 -14.424L103.488 -6.984Q100.08 -3.024 95.232 -1.008Q90.384 1.008 84.744 1.008Z M114.48 0.0V-69.408H127.10400000000001V0.0Z M159.984 1.008Q153.0 1.008 147.372 -2.208Q141.744 -5.424 138.45600000000002 -10.943999999999999Q135.168 -16.464 135.168 -23.28Q135.168 -30.096 138.44400000000002 -35.52Q141.72 -40.944 147.348 -44.16Q152.976 -47.376 159.96 -47.376Q167.016 -47.376 172.632 -44.196Q178.248 -41.016 181.536 -35.556Q184.824 -30.096 184.824 -23.28Q184.824 -16.464 181.548 -10.943999999999999Q178.272 -5.424 172.656 -2.208Q167.04 1.008 159.984 1.008ZM159.96 -10.752Q163.512 -10.752 166.224 -12.336Q168.936 -13.92 170.436 -16.764Q171.936 -19.608 171.936 -23.256Q171.936 -26.904 170.388 -29.676000000000002Q168.84 -32.448 166.176 -34.032Q163.512 -35.616 159.96 -35.616Q156.504 -35.616 153.79199999999997 -34.019999999999996Q151.07999999999998 -32.424 149.56799999999998 -29.652Q148.05599999999998 -26.88 148.05599999999998 -23.232Q148.05599999999998 -19.608 149.56799999999998 -16.764Q151.07999999999998 -13.92 153.79199999999997 -12.336Q156.504 -10.752 159.96 -10.752Z M192.816 0.0V-46.368H205.44V0.0ZM205.44 -25.608 200.51999999999998 -28.92Q201.432 -37.392 205.5598527607362 -42.36Q209.6877055214724 -47.328 217.416 -47.328Q220.82399999999998 -47.328 223.5 -46.2Q226.176 -45.072 228.33599999999998 -42.624L220.512 -33.552Q219.408 -34.752 217.92933333333332 -35.316Q216.45066666666665 -35.88 214.512 -35.88Q210.48 -35.88 207.95999999999998 -33.36603773584906Q205.44 -30.852075471698114 205.44 -25.608Z M252.552 1.008Q246.46048920863308 1.008 241.69424460431654 -1.608Q236.928 -4.224 234.252 -8.832916467780429Q231.576 -13.441832935560859 231.576 -19.4649122766168V-46.368H244.2V-19.776Q244.2 -16.892297142857142 245.18099999999998 -14.846605714285715Q246.162 -12.800914285714287 248.06053846153844 -11.704457142857144Q249.9590769230769 -10.608 252.57558620689656 -10.608Q256.512 -10.608 258.696 -13.009440000000001Q260.88 -15.41088 260.88 -19.776V-46.368H273.504V-19.464Q273.504 -13.368 270.84000000000003 -8.76Q268.176 -4.152 263.45507913669064 -1.572Q258.7341582733813 1.008 252.552 1.008Z M299.44800000000004 1.08Q295.464 1.08 291.696 0.03600000000000003Q287.928 -1.008 284.74800000000005 -2.916Q281.56800000000004 -4.824 279.264 -7.488L286.776 -15.072000000000001Q289.15200000000004 -12.408 292.29600000000005 -11.027999999999999Q295.44 -9.648 299.28000000000003 -9.648Q302.35200000000003 -9.648 303.94800000000004 -10.548Q305.54400000000004 -11.448 305.54400000000004 -13.152000000000001Q305.54400000000004 -15.072000000000001 303.85200000000003 -16.104Q302.16 -17.136 299.496 -17.892Q296.832 -18.648 293.88 -19.524Q290.928 -20.400000000000002 288.252 -21.912Q285.576 -23.424 283.896 -26.076Q282.216 -28.728 282.216 -32.928Q282.216 -37.368 284.4 -40.620000000000005Q286.584 -43.872 290.592 -45.684Q294.6 -47.496 300.096 -47.496Q305.832 -47.496 310.5 -45.492000000000004Q315.168 -43.488 318.192 -39.480000000000004L310.656 -31.896Q308.54400000000004 -34.44 305.88 -35.604Q303.216 -36.768 300.216 -36.768Q297.384 -36.768 295.908 -35.916Q294.432 -35.064 294.432 -33.504Q294.432 -31.8 296.112 -30.84Q297.79200000000003 -29.88 300.456 -29.16Q303.12 -28.44 306.06 -27.516000000000002Q309.0 -26.592000000000002 311.664 -24.972Q314.32800000000003 -23.352 316.00800000000004 -20.664Q317.688 -17.976 317.688 -13.68Q317.688 -6.888 312.76800000000003 -2.904Q307.848 1.08 299.44800000000004 1.08Z" fill="#eef4f7"/>
    <path transform="translate(339.3,0)" d="M6.888 0.0V-67.488H16.008L19.968 -54.384V0.0ZM53.568 0.0 13.488 -51.84 16.008 -67.488 56.088 -15.648ZM53.568 0.0 49.848 -12.648V-67.488H62.928000000000004V0.0Z M94.70400000000001 0.96Q88.368 0.96 83.316 -2.208Q78.264 -5.376 75.348 -10.824000000000002Q72.432 -16.272000000000002 72.432 -23.112000000000002Q72.432 -30.024 75.348 -35.484Q78.264 -40.944 83.316 -44.136Q88.368 -47.328 94.70400000000001 -47.328Q99.696 -47.328 103.632 -45.288Q107.56800000000001 -43.248 109.956 -39.672Q112.344 -36.096000000000004 112.512 -31.536V-14.832Q112.344 -10.272 109.99199999999999 -6.696Q107.64 -3.12 103.668 -1.08Q99.696 0.96 94.70400000000001 0.96ZM97.056 -10.656Q102.33600000000001 -10.656 105.57600000000001 -14.172Q108.816 -17.688 108.816 -23.184Q108.816 -26.88 107.352 -29.700000000000003Q105.888 -32.52 103.248 -34.116Q100.608 -35.712 97.08 -35.712Q93.624 -35.712 90.984 -34.116Q88.344 -32.52 86.82 -29.688000000000002Q85.296 -26.856 85.296 -23.184Q85.296 -19.512 86.80799999999999 -16.68Q88.32 -13.848 90.972 -12.252Q93.624 -10.656 97.056 -10.656ZM108.168 0.0V-12.456L110.184 -23.76L108.168 -34.968V-46.368H120.672V0.0Z M146.856 0.0 126.456 -46.368H140.232L154.96800000000002 -8.16H148.08L162.864 -46.368H176.256L155.856 0.0Z" fill="#85c1e9"/>
  </g>

  <!-- tagline -->
  <path transform="translate(364.2,580)" d="M2.052 0.0V-18.9H4.212L12.068999999999999 -5.967H10.665L18.522 -18.9H20.682V0.0H17.576999999999998V-13.446L18.279 -13.257L12.447 -3.672H10.286999999999999L4.455 -13.257L5.157 -13.446V0.0Z M32.382 0.0 40.158 -18.9H42.318L50.04 0.0H46.692L40.644 -15.309H41.778L35.676 0.0ZM36.216 -3.645V-6.345H46.233V-3.645Z M63.657 -8.019V-10.584H68.43599999999999Q69.86699999999999 -10.584 70.6635 -11.3265Q71.46 -12.068999999999999 71.46 -13.392Q71.46 -14.58 70.67699999999999 -15.39Q69.89399999999999 -16.2 68.463 -16.2H63.657V-18.9H68.598Q70.38 -18.9 71.72999999999999 -18.1845Q73.08 -17.469 73.82249999999999 -16.2405Q74.565 -15.012 74.565 -13.446Q74.565 -11.799 73.82249999999999 -10.584Q73.08 -9.369 71.72999999999999 -8.693999999999999Q70.38 -8.019 68.598 -8.019ZM61.523999999999994 0.0V-18.9H64.62899999999999V0.0ZM71.892 0.0 65.27699999999999 -8.208 68.166 -9.261 75.80699999999999 0.0Z M87.102 0.0V-18.9H90.207V0.0Z M103.31099999999999 0.0V-18.9H105.47099999999999L106.41599999999998 -15.336V0.0ZM116.40599999999999 0.0 105.09299999999999 -14.769 105.47099999999999 -18.9 116.78399999999999 -4.131ZM116.40599999999999 0.0 115.46099999999998 -3.321V-18.9H118.56599999999999V0.0Z M131.67 0.0V-18.9H134.775V0.0ZM133.803 0.0V-2.835H144.387V0.0ZM133.803 -8.289V-11.016H143.469V-8.289ZM133.803 -16.065V-18.9H144.252V-16.065Z M179.58599999999998 0.27Q177.534 0.27 175.7925 -0.47250000000000003Q174.051 -1.215 172.755 -2.5515Q171.45899999999997 -3.888 170.75699999999998 -5.656499999999999Q170.05499999999998 -7.425 170.05499999999998 -9.45Q170.05499999999998 -11.475 170.75699999999998 -13.243500000000001Q171.45899999999997 -15.012 172.755 -16.335Q174.051 -17.658 175.7925 -18.414Q177.534 -19.169999999999998 179.58599999999998 -19.169999999999998Q181.88099999999997 -19.169999999999998 183.55499999999998 -18.414Q185.22899999999998 -17.658 186.52499999999998 -16.362L184.41899999999998 -14.256Q183.582 -15.174 182.38049999999998 -15.687Q181.17899999999997 -16.2 179.58599999999998 -16.2Q178.182 -16.2 177.021 -15.713999999999999Q175.85999999999999 -15.228 175.0095 -14.3235Q174.159 -13.419 173.7 -12.177Q173.24099999999999 -10.935 173.24099999999999 -9.45Q173.24099999999999 -7.965 173.7 -6.723Q174.159 -5.481 175.0095 -4.5765Q175.85999999999999 -3.672 177.021 -3.186Q178.182 -2.7 179.58599999999998 -2.7Q181.31399999999996 -2.7 182.51549999999997 -3.2265Q183.71699999999998 -3.753 184.55399999999997 -4.671L186.65999999999997 -2.565Q185.36399999999998 -1.242 183.60899999999998 -0.486Q181.85399999999998 0.27 179.58599999999998 0.27Z M198.44099999999995 0.0V-18.9H201.54599999999996V0.0ZM210.45599999999996 0.0V-18.9H213.56099999999995V0.0ZM200.57399999999996 -8.37V-11.205H211.13099999999994V-8.37Z M225.26099999999994 0.0 233.03699999999995 -18.9H235.19699999999995L242.91899999999995 0.0H239.57099999999994L233.52299999999994 -15.309H234.65699999999995L228.55499999999995 0.0ZM229.09499999999994 -3.645V-6.345H239.11199999999994V-3.645Z M256.53599999999994 -8.019V-10.584H261.315Q262.746 -10.584 263.54249999999996 -11.3265Q264.33899999999994 -12.068999999999999 264.33899999999994 -13.392Q264.33899999999994 -14.58 263.5559999999999 -15.39Q262.77299999999997 -16.2 261.342 -16.2H256.53599999999994V-18.9H261.477Q263.25899999999996 -18.9 264.6089999999999 -18.1845Q265.95899999999995 -17.469 266.70149999999995 -16.2405Q267.44399999999996 -15.012 267.44399999999996 -13.446Q267.44399999999996 -11.799 266.70149999999995 -10.584Q265.95899999999995 -9.369 264.6089999999999 -8.693999999999999Q263.25899999999996 -8.019 261.477 -8.019ZM254.40299999999996 0.0V-18.9H257.508V0.0ZM264.77099999999996 0.0 258.15599999999995 -8.208 261.04499999999996 -9.261 268.686 0.0Z M283.81499999999994 0.0V-18.36H286.91999999999996V0.0ZM277.659 -16.065V-18.9H293.07599999999996V-16.065Z M306.909 -7.128V-9.828H311.634Q312.5938265895954 -9.828 313.3424913294798 -10.214181818181817Q314.09115606936416 -10.600363636363637 314.52307803468204 -11.3148Q314.955 -12.029236363636363 314.955 -13.014Q314.955 -13.998763636363638 314.52307803468204 -14.7132Q314.09115606936416 -15.427636363636363 313.3424913294798 -15.813818181818181Q312.5938265895954 -16.2 311.634 -16.2H306.909V-18.9H311.796Q313.578 -18.9 314.9955 -18.171Q316.413 -17.442 317.2365 -16.124268292682927Q318.06 -14.806536585365853 318.06 -13.019268292682927Q318.06 -11.232 317.2365 -9.908999999999999Q316.413 -8.586 314.9955 -7.857Q313.578 -7.128 311.796 -7.128ZM304.776 0.0V-18.9H307.881V0.0Z M329.86800000000005 0.0V-18.9H332.973V0.0ZM332.00100000000003 0.0V-2.835H341.88300000000004V0.0Z M360.954 0.27Q358.92900000000003 0.27 357.17400000000004 -0.486Q355.41900000000004 -1.242 354.096 -2.5785Q352.773 -3.915 352.0305 -5.6835Q351.288 -7.452 351.288 -9.477Q351.288 -11.502 352.0305 -13.257000000000001Q352.773 -15.012 354.08250000000004 -16.3485Q355.39200000000005 -17.685 357.1335 -18.4275Q358.875 -19.169999999999998 360.90000000000003 -19.169999999999998Q362.925 -19.169999999999998 364.66650000000004 -18.4275Q366.408 -17.685 367.731 -16.3485Q369.05400000000003 -15.012 369.79650000000004 -13.243500000000001Q370.53900000000004 -11.475 370.53900000000004 -9.45Q370.53900000000004 -7.425 369.79650000000004 -5.656499999999999Q369.05400000000003 -3.888 367.7445 -2.565Q366.435 -1.242 364.6935 -0.486Q362.952 0.27 360.954 0.27ZM360.90000000000003 -2.7Q362.817 -2.7 364.2615 -3.564Q365.706 -4.428 366.5295 -5.9535Q367.353 -7.479 367.353 -9.477Q367.353 -10.962 366.8805 -12.1905Q366.408 -13.419 365.544 -14.3235Q364.68 -15.228 363.5055 -15.713999999999999Q362.331 -16.2 360.90000000000003 -16.2Q359.01000000000005 -16.2 357.56550000000004 -15.349499999999999Q356.12100000000004 -14.499 355.2975 -12.987Q354.47400000000005 -11.475 354.47400000000005 -9.477Q354.47400000000005 -7.992 354.9465 -6.7364999999999995Q355.41900000000004 -5.481 356.2695 -4.59Q357.12 -3.699 358.308 -3.1995Q359.49600000000004 -2.7 360.90000000000003 -2.7Z M386.208 0.0V-18.36H389.31300000000005V0.0ZM380.0520000000001 -16.065V-18.9H395.46900000000005V-16.065Z M410.841 0.0V-18.36H413.946V0.0ZM404.68500000000006 -16.065V-18.9H420.10200000000003V-16.065Z M431.8020000000001 0.0V-18.9H434.90700000000004V0.0ZM433.93500000000006 0.0V-2.835H444.51900000000006V0.0ZM433.93500000000006 -8.289V-11.016H443.60100000000006V-8.289ZM433.93500000000006 -16.065V-18.9H444.38400000000007V-16.065Z M458.8650000000001 -8.019V-10.584H463.6440000000001Q465.0750000000001 -10.584 465.8715000000001 -11.3265Q466.6680000000001 -12.068999999999999 466.6680000000001 -13.392Q466.6680000000001 -14.58 465.8850000000001 -15.39Q465.10200000000015 -16.2 463.6710000000001 -16.2H458.8650000000001V-18.9H463.8060000000001Q465.58800000000014 -18.9 466.9380000000001 -18.1845Q468.2880000000001 -17.469 469.03050000000013 -16.2405Q469.77300000000014 -15.012 469.77300000000014 -13.446Q469.77300000000014 -11.799 469.03050000000013 -10.584Q468.2880000000001 -9.369 466.9380000000001 -8.693999999999999Q465.58800000000014 -8.019 463.8060000000001 -8.019ZM456.73200000000014 0.0V-18.9H459.8370000000001V0.0ZM467.10000000000014 0.0 460.4850000000001 -8.208 463.37400000000014 -9.261 471.0150000000001 0.0Z" fill="#3d6d94"/>
</svg>
