<?xml version="1.0" encoding="UTF-8"?>
<?xml-stylesheet href="daySvgStyle.css" type="text/css"?>
<svg xmlns="http://www.w3.org/2000/svg" version="1.2" baseProfile="tiny" xml:space="preserve" shape-rendering="geometricPrecision" fill-rule="evenodd" width="12mm" height="7.5mm" viewBox="-6 -3.75 12 7.5">
  <title>OBSTRN02</title>
  <desc>obstruction in the intertidal area</desc>
  <!-- Dotted oval, no fill, 20 dots evenly spaced by arc length -->
  <circle class="fCHBLK" cx="5.5" cy="0.0" r="0.35"/>
  <circle class="fCHBLK" cx="5.0" cy="1.3" r="0.35"/>
  <circle class="fCHBLK" cx="4.0" cy="2.2" r="0.35"/>
  <circle class="fCHBLK" cx="2.7" cy="2.8" r="0.35"/>
  <circle class="fCHBLK" cx="1.4" cy="3.1" r="0.35"/>
  <circle class="fCHBLK" cx="0.0" cy="3.2" r="0.35"/>
  <circle class="fCHBLK" cx="-1.4" cy="3.1" r="0.35"/>
  <circle class="fCHBLK" cx="-2.7" cy="2.8" r="0.35"/>
  <circle class="fCHBLK" cx="-4.0" cy="2.2" r="0.35"/>
  <circle class="fCHBLK" cx="-5.0" cy="1.3" r="0.35"/>
  <circle class="fCHBLK" cx="-5.5" cy="0.0" r="0.35"/>
  <circle class="fCHBLK" cx="-5.0" cy="-1.3" r="0.35"/>
  <circle class="fCHBLK" cx="-4.0" cy="-2.2" r="0.35"/>
  <circle class="fCHBLK" cx="-2.7" cy="-2.8" r="0.35"/>
  <circle class="fCHBLK" cx="-1.4" cy="-3.1" r="0.35"/>
  <circle class="fCHBLK" cx="0.0" cy="-3.2" r="0.35"/>
  <circle class="fCHBLK" cx="1.4" cy="-3.1" r="0.35"/>
  <circle class="fCHBLK" cx="2.7" cy="-2.8" r="0.35"/>
  <circle class="fCHBLK" cx="4.0" cy="-2.2" r="0.35"/>
  <circle class="fCHBLK" cx="5.0" cy="-1.3" r="0.35"/>
  <circle class="pivotPoint layout" fill="none" cx="0" cy="0" r="1"/>
</svg>
