<?xml version="1.0" encoding="UTF-8"?>
<svg xmlns="http://www.w3.org/2000/svg" version="1.2" baseProfile="tiny" xml:space="preserve" shape-rendering="geometricPrecision" fill-rule="evenodd" width="21" height="18" viewBox="-1.19 -2.34 5.59 4.78">
  <title>BCNDEF13</title>
  <desc>default symbol for a beacon, simplified</desc>
  <metadata>
    <iho:S100SVG xmlns:iho="http://www.iho.int/SVGMetadata/5.2">
      <iho:Description iho:publisher="IHB" iho:creationDate="2014-06-09" iho:source="S52Preslib4.0" iho:format="S100SVG" iho:version="0.1"/>
    </iho:S100SVG>
  </metadata>
  
  
  <path d=" M 2.04,-1.23 L 2.17,-1.51 L 2.3,-1.76 L 2.48,-1.92 L 2.65,-2.09 L 2.91,-2.18 L 3.14,-2.15 L 3.44,-2.06 L 3.72,-1.99 L 3.94,-1.65 L 4.12,-1.46 L 4.24,-1.23 L 4.23,-0.98 L 4.11,-0.75 L 3.97,-0.54 L 3.77,-0.3 L 3.53,-0.06 L 3.32,0.2 L 3.19,0.39 L 3.08,0.56 L 3.05,0.77 L 3.04,1 L 3.04,1.16 L 3.05,1.38 L 3.05,1.39" stroke-width="0.32" fill="none" stroke="#6600aa" stroke-linecap="round" stroke-linejoin="round" />
  <path d=" M 2.8,2.28 L 3.32,2.28" stroke-width="0.64" fill="none" stroke="#6600aa" stroke-linecap="round" stroke-linejoin="round" />
  <path d=" M -1.03,-2.02 L -1.03,1.97 L 0.97,1.97 L 0.97,-2.01 L -1.03,-2.02 Z" fill="#404040"/>
  <path d=" M -1.03,-2.02 L -1.03,1.97 L 0.97,1.97 L 0.97,-2.01 L -1.03,-2.02" stroke-width="0.32" fill="none" stroke="#000000" stroke-linecap="round" stroke-linejoin="round" />
  <circle cx="0" cy="0" r="0.15" fill="#000000"/>
  
</svg>
