<?xml version="1.0" encoding="UTF-8"?>
<svg xmlns="http://www.w3.org/2000/svg" version="1.2" baseProfile="tiny" xml:space="preserve" shape-rendering="geometricPrecision" fill-rule="evenodd" width="24" height="23" viewBox="-1.82 -5.1 6.41 5.96">
  <title>BCNGEN03</title>
  <desc>default symbol for beacon, paper-chart</desc>
  <metadata>
    <iho:S100SVG xmlns:iho="http://www.iho.int/SVGMetadata/5.2">
      <iho:Description iho:publisher="IHB" iho:creationDate="2023-02-12" iho:source="S52Preslib4.0" iho:format="S100SVG" iho:version="0.2"/>
    </iho:S100SVG>
  </metadata>
  
  
  <path d=" M 2.23,-3.32 L 2.36,-3.6 L 2.49,-3.85 L 2.66,-4.02 L 2.83,-4.19 L 3.09,-4.28 L 3.32,-4.26 L 3.62,-4.17 L 3.9,-4.11 L 4.13,-3.77 L 4.31,-3.58 L 4.43,-3.36 L 4.43,-3.11 L 4.31,-2.87 L 4.18,-2.66 L 3.98,-2.42 L 3.75,-2.17 L 3.54,-1.91 L 3.41,-1.72 L 3.3,-1.55 L 3.28,-1.33 L 3.28,-1.1 L 3.28,-0.93 L 3.3,-0.71 L 3.3,-0.69" stroke-width="0.32" fill="none" stroke="#6600aa" stroke-linecap="round" stroke-linejoin="round" />
  <path d=" M 3.09,0.18 L 3.62,0.18" stroke-width="0.64" fill="none" stroke="#6600aa" stroke-linecap="round" stroke-linejoin="round" />
  <path d=" M -1.5,-0.57 L 1.68,-0.58" stroke-width="0.64" fill="none" stroke="#000000" stroke-linecap="round" stroke-linejoin="round" />
  <circle stroke-width="0.64"  cx="0" cy="0" r="0.54" fill="none" stroke="#000000"/>
  <path d=" M -0.01,-0.59 L -0.04,-4.46" stroke-width="1.28" fill="none" stroke="#000000" stroke-linecap="round" stroke-linejoin="round" />
  
</svg>
