<?xml version="1.0" encoding="UTF-8"?>
<svg xmlns="http://www.w3.org/2000/svg" version="1.2" baseProfile="tiny" xml:space="preserve" shape-rendering="geometricPrecision" fill-rule="evenodd" width="29" height="29" viewBox="-1.22 -1.27 7.68 7.68">
  <title>LIGHTS12</title>
  <desc>light flare, green</desc>
  <metadata>
    <iho:S100SVG xmlns:iho="http://www.iho.int/SVGMetadata/5.2">
      <iho:Description iho:publisher="IHB" iho:creationDate="2014-06-09" iho:source="S52Preslib4.0" iho:format="S100SVG" iho:version="0.1"/>
    </iho:S100SVG>
  </metadata>
  
  
  <g transform="rotate(135)">
<path d=" M 0,0 L -1.2,-5.63 L -1.2,-5.85 L -1.2,-6.23 L -1.05,-6.6 L -0.83,-6.75 L -0.53,-6.98 L -0.08,-7.05 L 0.3,-6.98 L 0.6,-6.9 L 0.9,-6.68 L 1.05,-6.3 L 1.12,-6 L 1.12,-5.7 L 0,0 Z" fill="#50ff00" />
  <path d=" M 0,0 L -1.2,-5.63 L -1.2,-5.85 L -1.2,-6.23 L -1.05,-6.6 L -0.83,-6.75 L -0.53,-6.98 L -0.08,-7.05 L 0.3,-6.98 L 0.6,-6.9 L 0.9,-6.68 L 1.05,-6.3 L 1.12,-6 L 1.12,-5.7 L 0,0" stroke-width="0.32" fill="none" stroke="#000000" stroke-linecap="round" stroke-linejoin="round" />
</g>
  
</svg>
