<?xml version="1.0" encoding="UTF-8"?>
<svg xmlns="http://www.w3.org/2000/svg" version="1.2" baseProfile="tiny" xml:space="preserve" shape-rendering="geometricPrecision" fill-rule="evenodd" width="45" height="28" viewBox="-6 -3.75 12 7.5">
  <title>OBSTRN03</title>
  <desc>obstruction which covers and uncovers</desc>
  <!-- Dotted oval, no fill, 20 dots evenly spaced by arc length -->
  <circle cx="5.5" cy="0.0" r="0.35" fill="#000000"/>
  <circle cx="5.0" cy="1.3" r="0.35" fill="#000000"/>
  <circle cx="4.0" cy="2.2" r="0.35" fill="#000000"/>
  <circle cx="2.7" cy="2.8" r="0.35" fill="#000000"/>
  <circle cx="1.4" cy="3.1" r="0.35" fill="#000000"/>
  <circle cx="0.0" cy="3.2" r="0.35" fill="#000000"/>
  <circle cx="-1.4" cy="3.1" r="0.35" fill="#000000"/>
  <circle cx="-2.7" cy="2.8" r="0.35" fill="#000000"/>
  <circle cx="-4.0" cy="2.2" r="0.35" fill="#000000"/>
  <circle cx="-5.0" cy="1.3" r="0.35" fill="#000000"/>
  <circle cx="-5.5" cy="0.0" r="0.35" fill="#000000"/>
  <circle cx="-5.0" cy="-1.3" r="0.35" fill="#000000"/>
  <circle cx="-4.0" cy="-2.2" r="0.35" fill="#000000"/>
  <circle cx="-2.7" cy="-2.8" r="0.35" fill="#000000"/>
  <circle cx="-1.4" cy="-3.1" r="0.35" fill="#000000"/>
  <circle cx="0.0" cy="-3.2" r="0.35" fill="#000000"/>
  <circle cx="1.4" cy="-3.1" r="0.35" fill="#000000"/>
  <circle cx="2.7" cy="-2.8" r="0.35" fill="#000000"/>
  <circle cx="4.0" cy="-2.2" r="0.35" fill="#000000"/>
  <circle cx="5.0" cy="-1.3" r="0.35" fill="#000000"/>
  
</svg>
