<?xml version="1.0" encoding="UTF-8"?>
<svg xmlns="http://www.w3.org/2000/svg" version="1.2" baseProfile="tiny" xml:space="preserve" shape-rendering="geometricPrecision" fill-rule="evenodd" width="45" height="28" viewBox="-6 -3.75 12 7.5">
  <title>UWTROC03</title>
  <desc>dangerous underwater rock of uncertain depth</desc>
  <!-- Dotted oval with cross, no fill, 20 dots evenly spaced by arc length -->
  <circle cx="5.5" cy="0.0" r="0.35" fill="#000000"/>
  <circle cx="5.0" cy="1.3" r="0.35" fill="#000000"/>
  <circle cx="4.0" cy="2.2" r="0.35" fill="#000000"/>
  <circle cx="2.7" cy="2.8" r="0.35" fill="#000000"/>
  <circle cx="1.4" cy="3.1" r="0.35" fill="#000000"/>
  <circle cx="0.0" cy="3.2" r="0.35" fill="#000000"/>
  <circle cx="-1.4" cy="3.1" r="0.35" fill="#000000"/>
  <circle cx="-2.7" cy="2.8" r="0.35" fill="#000000"/>
  <circle cx="-4.0" cy="2.2" r="0.35" fill="#000000"/>
  <circle cx="-5.0" cy="1.3" r="0.35" fill="#000000"/>
  <circle cx="-5.5" cy="0.0" r="0.35" fill="#000000"/>
  <circle cx="-5.0" cy="-1.3" r="0.35" fill="#000000"/>
  <circle cx="-4.0" cy="-2.2" r="0.35" fill="#000000"/>
  <circle cx="-2.7" cy="-2.8" r="0.35" fill="#000000"/>
  <circle cx="-1.4" cy="-3.1" r="0.35" fill="#000000"/>
  <circle cx="0.0" cy="-3.2" r="0.35" fill="#000000"/>
  <circle cx="1.4" cy="-3.1" r="0.35" fill="#000000"/>
  <circle cx="2.7" cy="-2.8" r="0.35" fill="#000000"/>
  <circle cx="4.0" cy="-2.2" r="0.35" fill="#000000"/>
  <circle cx="5.0" cy="-1.3" r="0.35" fill="#000000"/>
  <path d="M 0,-2.5 L 0,2.5" stroke-width="0.64" fill="none" stroke="#000000" stroke-linecap="round" stroke-linejoin="round"/>
  <path d="M -3.5,0 L 3.5,0" stroke-width="0.64" fill="none" stroke="#000000" stroke-linecap="round" stroke-linejoin="round"/>
  
</svg>
