<?xml version="1.0" encoding="UTF-8"?>
<svg xmlns="http://www.w3.org/2000/svg" version="1.2" baseProfile="tiny" xml:space="preserve" shape-rendering="geometricPrecision" fill-rule="evenodd" width="16" height="16" viewBox="-2.17 -2.17 4.34 4.34">
  <title>UWTROC03</title>
  <desc>dangerous underwater rock of uncertain depth</desc>
  <metadata>
    <iho:S100SVG xmlns:iho="http://www.iho.int/SVGMetadata/5.2">
      <iho:Description iho:publisher="IHO" iho:creationDate="2023-05-01" iho:source="S52Preslib4.0" iho:format="S100SVG" iho:version="1.0"/>
    </iho:S100SVG>
  </metadata>
  
  
  <circle cx="0" cy="0" r="2.01" fill="#b8b8b8"/>
  <circle stroke-width="0.32"  cx="0" cy="-2" r="0.16" fill="#000000"/>
  <circle stroke-width="0.32"  cx="0" cy="2" r="0.16" fill="#000000"/>
  <circle stroke-width="0.32"  cx="2" cy="0" r="0.16" fill="#000000"/>
  <circle stroke-width="0.32"  cx="-2" cy="0" r="0.16" fill="#000000"/>
  <circle stroke-width="0.32"  cx="0.8" cy="-1.9" r="0.16" fill="#000000"/>
  <circle stroke-width="0.32"  cx="1.4" cy="-1.4" r="0.16" fill="#000000"/>
  <circle stroke-width="0.32"  cx="1.85" cy="-0.75" r="0.16" fill="#000000"/>
  <circle stroke-width="0.32"  cx="1.75" cy="0.85" r="0.16" fill="#000000"/>
  <circle stroke-width="0.32"  cx="1.4" cy="1.4" r="0.16" fill="#000000"/>
  <circle stroke-width="0.32"  cx="0.75" cy="1.8" r="0.16" fill="#000000"/>
  <circle stroke-width="0.32"  cx="-0.8" cy="1.8" r="0.16" fill="#000000"/>
  <circle stroke-width="0.32"  cx="-1.4" cy="1.35" r="0.16" fill="#000000"/>
  <circle stroke-width="0.32"  cx="-1.85" cy="0.7" r="0.16" fill="#000000"/>
  <circle stroke-width="0.32"  cx="-1.8" cy="-0.8" r="0.16" fill="#000000"/>
  <circle stroke-width="0.32"  cx="-1.45" cy="-1.45" r="0.16" fill="#000000"/>
  <circle stroke-width="0.32"  cx="-0.8" cy="-1.85" r="0.16" fill="#000000"/>
  <path d=" M 0.02,-1.29 L 0.02,1.48" stroke-width="0.32" fill="none" stroke="#000000" stroke-linecap="round" stroke-linejoin="round" />
  <path d=" M -1.36,0.05 L 1.37,0.06" stroke-width="0.32" fill="none" stroke="#000000" stroke-linecap="round" stroke-linejoin="round" />
  
</svg>
